<svg xmlns="http://www.w3.org/2000/svg" xmlns:xlink="http://www.w3.org/1999/xlink" preserveAspectRatio="xMidYMid" width="12" height="12" viewBox="0 0 12 12">
  <defs>
    <style>

      .cls-2 {
        fill: #c1c8d0;
      }
    </style>
  </defs>
  <path d="M11.366,9.557 C11.366,9.557 8.061,6.245 8.061,6.245 C8.045,6.233 8.029,6.219 8.013,6.204 C7.998,6.189 7.984,6.173 7.972,6.157 C7.838,5.979 7.852,5.725 8.013,5.563 C8.013,5.563 8.011,5.560 8.011,5.560 C8.011,5.560 11.285,2.292 11.285,2.292 C11.285,2.292 11.449,2.128 11.449,2.128 C11.875,1.621 11.849,0.862 11.372,0.384 C10.887,-0.101 10.113,-0.119 9.605,0.326 C9.605,0.326 9.486,0.447 9.486,0.447 C9.486,0.447 6.213,3.720 6.213,3.720 C6.212,3.722 6.209,3.724 6.207,3.727 C6.203,3.729 6.201,3.733 6.198,3.736 C6.192,3.742 6.186,3.747 6.181,3.753 C6.180,3.753 6.180,3.753 6.180,3.753 C6.008,3.908 5.745,3.908 5.573,3.753 C5.568,3.747 5.561,3.742 5.556,3.736 C5.551,3.731 5.545,3.725 5.541,3.720 C5.541,3.720 2.292,0.465 2.292,0.465 C2.292,0.465 2.128,0.300 2.128,0.300 C1.620,-0.125 0.862,-0.099 0.384,0.378 C-0.101,0.863 -0.120,1.637 0.326,2.145 C0.326,2.145 0.447,2.265 0.447,2.265 C0.447,2.265 3.721,5.539 3.721,5.539 C3.721,5.539 3.721,5.539 3.722,5.539 C3.727,5.544 3.733,5.550 3.739,5.555 C3.746,5.562 3.751,5.569 3.757,5.575 C3.910,5.748 3.909,6.007 3.757,6.178 C3.756,6.178 3.755,6.179 3.755,6.180 C3.749,6.185 3.744,6.191 3.739,6.196 C3.733,6.202 3.729,6.206 3.723,6.211 C3.722,6.212 3.722,6.212 3.722,6.212 C3.722,6.212 0.452,9.484 0.452,9.484 C0.452,9.484 0.305,9.630 0.305,9.630 C-0.125,10.134 -0.102,10.893 0.375,11.369 C0.876,11.870 1.687,11.871 2.189,11.371 C2.189,11.371 2.193,11.366 2.193,11.366 C2.193,11.366 5.548,8.019 5.548,8.019 C5.549,8.017 5.552,8.015 5.554,8.013 C5.559,8.007 5.565,8.001 5.570,7.997 C5.748,7.835 6.023,7.841 6.195,8.013 C6.195,8.013 6.195,8.013 6.195,8.013 C6.195,8.013 9.482,11.299 9.482,11.299 C9.482,11.299 9.629,11.446 9.629,11.446 C10.134,11.875 10.892,11.852 11.368,11.376 C11.869,10.874 11.870,10.063 11.370,9.561 C11.370,9.561 11.366,9.557 11.366,9.557 Z" id="path-1" class="cls-2" fill-rule="evenodd"/>
</svg>
